<svg viewBox="0 0 100 100" version="1.1" xmlns="http://www.w3.org/2000/svg" xmlns:xlink="http://www.w3.org/1999/xlink"> <g stroke="none" stroke-width="1" fill="#0047BB" fill-rule="evenodd"> <path d="M80.632,52.608 L50.004,84.288 L19.548,52.576 C15.66,48.732 14,44.972 14,40 C14,29.568 21.568,22 32,22 C37.996,22 44.716,25.748 48.344,31.116 L50,33.572 L51.656,31.116 C55.28,25.748 62.004,22 68,22 C78.428,22 86,29.568 86,40 C86,44.988 84.304,48.984 80.632,52.608 M68,18 C61.488,18 54.552,21.42 50,26.712 C45.444,21.42 38.512,18 32,18 C19.456,18 10,27.456 10,40 C10,45.98 12.14,50.88 16.704,55.384 L49.996,90.052 L83.476,55.424 C87.868,51.092 90,46.044 90,40 C90,27.456 80.544,18 68,18"></path> </g></svg>
