<svg xmlns="http://www.w3.org/2000/svg" viewBox="0 0 24 24" width="24" height="24">
  <path d="M19,4H5C3.3,4,2,5.3,2,7v10c0,1.7,1.3,3,3,3h14c1.7,0,3-1.3,3-3V7C22,5.3,20.7,4,19,4z M20,17
    c0,0.6-0.4,1-1,1H5c-0.6,0-1-0.4-1-1V7c0-0.6,0.4-1,1-1h14c0.6,0,1,0.4,1,1V17z"/>
  <path d="M7.1,10.1c-1.1,0-1.9,0.9-1.9,1.9s0.9,1.9,1.9,1.9s1.9-0.9,1.9-1.9S8.2,10.1,7.1,10.1z M7.1,12.8
    c-0.4,0-0.8-0.4-0.8-0.8s0.4-0.8,0.8-0.8s0.8,0.4,0.8,0.8S7.5,12.8,7.1,12.8z"/>
  <path d="M11.2,9.6h-1.1v4.8h1.1v-1.7h0.6c1,0,1.7-0.7,1.7-1.6S12.7,9.6,11.2,9.6z M11.7,11.7h-0.6v-1.1h0.6
    c0.4,0,0.6,0.2,0.6,0.5S12.1,11.7,11.7,11.7z"/>
  <path d="M15.6,9.6h-2v4.8h2c1.3,0,2.2-0.9,2.2-2.4S16.9,9.6,15.6,9.6z M15.5,13.3h-0.8v-2.6h0.8
    c0.7,0,1.1,0.5,1.1,1.3S16.2,13.3,15.5,13.3z"/>
  <circle cx="12" cy="2.5" r="0.8"/>
  <rect x="11.5" y="1" width="1" height="1.5"/>
</svg>
