<svg xmlns="http://www.w3.org/2000/svg" viewBox="0 0 48 48"><title>open sign icon</title><circle cx="24" cy="24" r="20" fill="#0047bb"/><path fill="#fff" d="M16.9912,24.9683v-.01a.8933.8933,0,0,1,.8906-.9356.9033.9033,0,0,1,.8955.9454v.01a.8932.8932,0,0,1-.8857.937A.9134.9134,0,0,1,16.9912,24.9683Zm5.8262-.4707v-.01c0-.3-.2158-.4551-.5606-.4551h-.4609v.9258h.4658C22.6016,24.9585,22.8174,24.7788,22.8174,24.4976ZM24,16a1,1,0,1,0-1-1A1.0009,1.0009,0,0,0,24,16Zm1.1031.6657a1.9871,1.9871,0,0,1-2.2062,0L20.3033,19h7.3934ZM34,19H29.1923l-3.4254-3.083A1.9744,1.9744,0,0,0,26,15a2,2,0,0,0-4,0,1.9744,1.9744,0,0,0,.2331.917L18.8077,19H14V31H34ZM15,20H33V30H15Zm13.69,6.7207h.961V24.7983l1.5009,1.9224h.8457V23.2163h-.9609v1.853l-1.4414-1.853H28.69Zm-3.96,0h2.8427v-.8262H25.6914V25.34H27.373v-.767H25.6914v-.5352h1.8565v-.8213H24.7305Zm-3.9053,0h.9707V25.72h.4853c.8663,0,1.502-.4355,1.502-1.2671v-.01c0-.7754-.5713-1.2266-1.4521-1.2266H20.8252ZM16,24.978a1.888,1.888,0,0,0,3.7734-.01v-.01a1.8881,1.8881,0,0,0-3.7734.01Z"/></svg>
