<svg viewBox="0 0 100 100" version="1.1" xmlns="http://www.w3.org/2000/svg" xmlns:xlink="http://www.w3.org/1999/xlink"> <g stroke="none" stroke-width="1" fill="#0047BB" fill-rule="evenodd"> <path d="M72,86 L28,86 L28,60.828 L42.828,46 L57.172,46 L72,60.828 L72,86 Z M36,28 C36,24.704 37.168,21.504 39.288,18.988 C41.956,15.816 45.86,14 50,14 C57.72,14 64,20.28 64,28 C64,35.72 57.72,42 50,42 C42.28,42 36,35.72 36,28 L36,28 Z M59.856,43.028 C64.752,39.808 68,34.284 68,28 C68,18.076 59.924,10 50,10 C44.68,10 39.66,12.336 36.228,16.408 C33.5,19.648 32,23.764 32,28 C32,34.284 35.248,39.808 40.144,43.028 L24,59.172 L24,90 L76,90 L76,59.172 L59.856,43.028 Z"></path> </g></svg>
