<svg xmlns="http://www.w3.org/2000/svg" viewBox="0 0 48 48"><title>person shield icon</title><circle cx="24" cy="24" r="20" fill="#0047bb"/><path fill="#fff" d="M23.5078,22a3.5,3.5,0,1,1,3.5-3.5A3.5042,3.5042,0,0,1,23.5078,22Zm10.4346,3.4453a7.3951,7.3951,0,0,1-3.9346,7.4375,7.4,7.4,0,0,1-3.9355-7.4375,7.9377,7.9377,0,0,0,3.9355-1.38A7.9279,7.9279,0,0,0,33.9424,25.4453Zm-2.0811,2.4082-.707-.707L29.5078,28.793l-.6465-.6465-.707.707,1.3535,1.3535Zm-6.78-2.543.1044-.8339.4307-.01a7.1806,7.1806,0,0,0,1.3366-.17L25.332,23H21.7148l-3.707,3.707V33H28.3727A8.3488,8.3488,0,0,1,25.0811,25.3105Z"/></svg>
