<svg xmlns="http://www.w3.org/2000/svg" viewBox="0 0 48 48"><title>shield icon</title><circle cx="24" cy="24" r="20" fill="#0047bb"/><path fill="#fff" d="M24.2192,33.8926L24,34l-.2192-.1074a15.4859,15.4859,0,0,1-8.8726-15.69l.1489-1.1933.4317-.01a14.0489,14.0489,0,0,0,8.2031-2.7593L24,14l.3081.2407A14.0481,14.0481,0,0,0,32.5117,17l.4307.01.1494,1.1943A15.4861,15.4861,0,0,1,24.2192,33.8926Zm7.8374-15.9082A15.1222,15.1222,0,0,1,24,15.2612a15.1252,15.1252,0,0,1-8.0566,2.7232l-.043.3437A14.468,14.468,0,0,0,24,32.8848a14.4681,14.4681,0,0,0,8.1-14.5557ZM22.5,27.207l-3.3535-3.3535.707-.707L22.5,25.793l5.6465-5.6465.707.707Z"/></svg>
